<?xml version="1.0" encoding="UTF-8" standalone="no"?>
<!-- Created with Inkscape (http://www.inkscape.org/) -->

<svg
   xmlns:dc="http://purl.org/dc/elements/1.1/"
   xmlns:cc="http://creativecommons.org/ns#"
   xmlns:rdf="http://www.w3.org/1999/02/22-rdf-syntax-ns#"
   xmlns:svg="http://www.w3.org/2000/svg"
   xmlns="http://www.w3.org/2000/svg"
   xmlns:sodipodi="http://sodipodi.sourceforge.net/DTD/sodipodi-0.dtd"
   xmlns:inkscape="http://www.inkscape.org/namespaces/inkscape"
   width="210mm"
   height="210mm"
   viewBox="0 0 210 210"
   version="1.1"
   id="svg3208"
   inkscape:version="0.92.3 (2405546, 2018-03-11)"
   sodipodi:docname="square-logo.svg"
   inkscape:export-filename="/home/adulau/bitmap.png"
   inkscape:export-xdpi="80"
   inkscape:export-ydpi="80">
  <defs
     id="defs3202" />
  <sodipodi:namedview
     id="base"
     pagecolor="#ffffff"
     bordercolor="#666666"
     borderopacity="1.0"
     inkscape:pageopacity="0.0"
     inkscape:pageshadow="2"
     inkscape:zoom="0.35"
     inkscape:cx="-131.42857"
     inkscape:cy="560"
     inkscape:document-units="mm"
     inkscape:current-layer="layer1"
     showgrid="false"
     inkscape:window-width="1920"
     inkscape:window-height="1025"
     inkscape:window-x="0"
     inkscape:window-y="27"
     inkscape:window-maximized="1" />
  <metadata
     id="metadata3205">
    <rdf:RDF>
      <cc:Work
         rdf:about="">
        <dc:format>image/svg+xml</dc:format>
        <dc:type
           rdf:resource="http://purl.org/dc/dcmitype/StillImage" />
        <dc:title></dc:title>
      </cc:Work>
    </rdf:RDF>
  </metadata>
  <g
     inkscape:label="Layer 1"
     inkscape:groupmode="layer"
     id="layer1"
     transform="translate(0,-87)">
    <g
       id="g3778"
       transform="matrix(0.38152148,0,0,0.38152148,65.346361,156.12029)">
      <path
         inkscape:connector-curvature="0"
         id="path3132"
         d="m 230.50228,86.993721 c -0.68204,11.5033 -2.71645,23.272099 -5.59599,32.371899 -3.63109,11.4749 -9.6997,24.1948 -15.96935,33.4719 -9.90745,14.65979 -22.95956,27.9645 -37.11227,37.83041 -25.10344,17.4997 -52.82877,27.11839 -80.156271,27.8084 -19.68034,0.49699 -42.2493,-4.37261 -60.99218,-13.16 -16.30474,-7.64432 -28.5098393,-17.12201 -38.6173373,-29.98761 -8.8305187,-11.24001 -15.4422397,-25.3969 -19.6199097,-42.0095 -2.390601,-9.5063 -3.881422,-21.4666 -3.751361,-30.096 0.42554,-28.234699 7.551032,-53.132499 22.4488907,-78.441199 12.130339,-20.6072004 29.0186073,-40.511401 47.7687873,-56.2998 16.12704,-13.579602 28.50134,-20.160901 42.18129,-22.434503 l 3.13528,-0.520898 1.31088,0.610298 c 1.00952,0.470001 1.4008,0.834602 1.70199,1.585802 0.34923,0.871 0.34063,1.085699 -0.0804,2.005801 -0.29329,0.640998 -0.82032,1.210299 -1.39456,1.506498 -0.5077,0.2618 -1.93209,0.989002 -3.1653,1.6159 -3.4734,1.7658 -7.73313,5.319501 -17.13892,14.298501 C 48.911969,-17.057681 38.452079,-5.7725794 29.154039,6.3148206 13.310562,26.911121 2.4097017,47.549121 -2.9561593,67.107221 c -2.212809,8.0653 -3.637,16.425 -4.457028,26.1613 -0.349552,4.1504 -0.003,17.872299 0.562808,22.294999 0.538631,4.209 2.204749,12.2892 3.409821,16.5367 2.53687999,8.9415 7.166789,19.00441 12.021809,26.12879 7.3889383,10.84281 17.5412283,18.9221 32.1545983,25.58902 7.93339,3.61929 15.26039,6.07089 23.71174,7.93348 11.55413,2.5464 17.65014,3.0735 29.4168,2.54251 6.314721,-0.2849 8.600641,-0.4953 12.164871,-1.1199 13.15865,-2.30629 25.49486,-6.65379 38.13388,-13.43909 19.19141,-10.30311 34.50563,-24.0888 46.31726,-41.69441 7.39227,-11.0182 11.52716,-20.23 14.04411,-31.2879 3.62813,-15.939399 4.01471,-31.566299 1.14083,-46.116499 -2.39408,-12.1211 -7.96152,-25.3515 -14.69813,-34.9285 -8.18589,-11.6375 -16.77879,-19.8496004 -27.25937,-26.0514004 -13.53534,-8.0096 -28.21779,-12.0526996 -42.47498,-11.6964996 -5.46146,0.1352 -16.92743,1.8211 -25.766981,3.7857996 -3.45964,0.769 -7.11278,0.795 -8.71798,0.062 -1.81996,-0.8308 -3.26298,-2.1036996 -4.20706,-3.7110996 -0.76375,-1.3003 -0.83392,-1.6198 -0.89606,-4.080901 -0.0621,-2.4609 -0.009,-2.783599 0.68896,-4.120801 0.89676,-1.720098 2.36453,-3.136598 4.18141,-4.035301 1.77769,-0.879398 11.2689,-4.192098 16.022891,-5.592497 15.19359,-4.475801 28.16362,-4.996601 42.76695,-1.7174 15.07208,3.384499 30.03977,10.6187 41.72239,20.1652 10.05112,8.2133996 19.32339,18.7555996 25.50618,28.9995 8.21639,13.6134 13.17154,26.7094 16.27192,43.0052 1.39505,7.3324 2.13786,18.8348 1.6968,26.2739 z M 151.70501,-88.923781 c -0.51872,1.576101 -1.2884,2.7073 -3.17157,4.6612 -2.8861,2.994499 -4.22423,3.7781 -7.55594,4.4248 -6.24903,1.213 -12.4807,-3.030699 -14.44798,-9.839 -0.77544,-2.6836 -0.61259,-7.3803 0.36717,-10.589289 1.38341,-4.5313 3.12642,-7.48833 6.1491,-10.43203 2.00796,-1.95545 3.99722,-3.12159 5.89118,-3.45335 5.37079,-0.94083 8.96253,4.60689 5.8464,9.03022 -0.62188,0.88275 -1.56729,3.74838 -1.5476,4.69092 0.007,0.37363 0.24216,0.461499 1.16864,0.438119 1.50736,-0.0384 4.13509,1.18461 5.39494,2.51031 1.87232,1.97 2.76078,5.9601 1.90566,8.5581 z m -69.753381,-4.5002 c -0.5633,3.6633 -2.45094,8.598399 -4.62473,12.091201 -1.33612,2.1468 -5.10492,6.043498 -6.9866,7.223699 -4.63909,2.909699 -9.02637,3.3264 -13.47332,1.279699 -3.79258,-1.745498 -6.60224,-5.339799 -7.65851,-9.797198 -0.57153,-2.411902 -0.54831,-6.812401 0.0486,-9.213501 0.94609,-3.8058 3.0331,-7.72873 5.71395,-10.740539 1.49115,-1.67527 2.34788,-2.37552 3.91355,-3.19901 1.7654,-0.92834 2.22906,-1.05755 3.88728,-1.08295 1.56427,-0.0246 2.16541,0.10678 3.5534,0.77255 0.91885,0.44089 1.74965,0.92246 1.84623,1.07024 0.28011,0.42862 0.56018,0.3166 1.68871,-0.6757 2.27389,-1.99944 5.64555,-2.01887 8.30964,-0.0481 1.14434,0.84655 2.4708,2.85037 3.07547,4.64597 0.67285,1.998159 1.01217,5.684539 0.70631,7.673439 z m -15.53159,-4.3936 c -1.95102,0.6793 -1.94568,0.6736 -2.80457,2.9739 -0.95425,2.5554 -1.59417,5.5254 -1.53753,7.135699 l 0.0403,1.148501 1.038,-1.2285 c 2.27062,-2.6874 4.56399,-7.5599 4.53386,-9.6329 l -0.0122,-0.8349 -1.25803,0.4382 z"
         style="fill:#000000;stroke-width:0.26709005" />
      <text
         id="text2022-2-3-9"
         y="275.1329"
         x="-72.647972"
         style="font-style:normal;font-weight:normal;font-size:10.58333302px;line-height:1.25;font-family:sans-serif;letter-spacing:0px;word-spacing:0px;fill:#000000;fill-opacity:1;stroke:none;stroke-width:0.26458332"
         xml:space="preserve"><tspan
           style="font-style:normal;font-variant:normal;font-weight:normal;font-stretch:normal;font-size:50.79999924px;font-family:'Noto Sans Display';-inkscape-font-specification:'Noto Sans Display, Normal';font-variant-ligatures:normal;font-variant-caps:normal;font-variant-numeric:normal;font-feature-settings:normal;text-align:start;writing-mode:lr-tb;text-anchor:start;stroke-width:0.26458332"
           y="275.1329"
           x="-72.647972"
           id="tspan2020-8-7-8"
           sodipodi:role="line">mianmö project </tspan></text>
      <text
         id="text2022-7"
         y="306.19"
         x="-88.333931"
         style="font-style:normal;font-variant:normal;font-weight:normal;font-stretch:normal;font-size:21.32572556px;line-height:1.25;font-family:sans-serif;-inkscape-font-specification:'sans-serif, Normal';font-variant-ligatures:normal;font-variant-caps:normal;font-variant-numeric:normal;font-feature-settings:normal;text-align:start;letter-spacing:0px;word-spacing:0px;writing-mode:lr-tb;text-anchor:start;fill:#000000;fill-opacity:1;stroke:none;stroke-width:0.53314316"
         xml:space="preserve"><tspan
           style="stroke-width:0.53314316"
           y="306.19"
           x="-88.333931"
           id="tspan2160-0"
           sodipodi:role="line">Mask to build and assemble yourself</tspan></text>
      <rect
         transform="matrix(0.78604451,0.6181699,-0.6179289,0.78623398,0,0)"
         rx="71.995781"
         ry="21.478657"
         y="-60.170181"
         x="155.83478"
         height="137.76595"
         width="143.99156"
         id="rect3170-7"
         style="opacity:1;fill:#ffffff;fill-opacity:1;stroke:none;stroke-width:1.75323737;stroke-miterlimit:4;stroke-dasharray:none;stroke-opacity:1" />
      <rect
         transform="matrix(0.78604451,0.6181699,-0.6179289,0.78623398,0,0)"
         rx="71.995781"
         ry="21.478657"
         y="-60.170181"
         x="155.83478"
         height="137.76595"
         width="143.99156"
         id="rect3170"
         style="opacity:0.62999998;fill:#3366cc;fill-opacity:1;stroke:none;stroke-width:1.75323737;stroke-miterlimit:4;stroke-dasharray:none;stroke-opacity:1" />
    </g>
  </g>
</svg>
